<svg width="250" height="200" viewBox="0 0 250 200" fill="none" xmlns="http://www.w3.org/2000/svg">
<path d="M120.5 133C139.002 133 154 118.002 154 99.5C154 80.9985 139.002 66 120.5 66C101.998 66 87 80.9985 87 99.5C87 118.002 101.998 133 120.5 133Z" stroke="#FFFFE6" stroke-width="2.5"/>
<path d="M115.132 125.494C116.891 125.819 118.68 125.987 120.5 126C135.136 126 147 114.136 147 99.5C147 84.8645 135.136 73 120.5 73C116.74 73 113.164 73.7829 109.924 75.1946C104.294 77.6479 99.6816 81.9999 96.896 87.4419C95.0445 91.0589 94 95.1575 94 99.5C94 103.44 94.8599 107.179 96.4021 110.54C97.5032 112.94 98.9521 115.146 100.684 117.096" stroke="#FFFFE6" stroke-width="2.5" stroke-linecap="round"/>
<path d="M103.797 120.075C105.945 121.821 108.372 123.237 111.001 124.247" stroke="#FFFFE6" stroke-width="2.5" stroke-linecap="round"/>
<path d="M148 126L154 132" stroke="#FFFFE6" stroke-width="2.5"/>
<path fill-rule="evenodd" clip-rule="evenodd" d="M153.03 131.03C151.138 132.923 151.138 135.992 153.03 137.884L164.116 148.97C166.008 150.862 169.077 150.862 170.97 148.97C172.863 147.077 172.863 144.008 170.97 142.116L159.885 131.03C157.992 129.138 154.923 129.138 153.03 131.03Z" stroke="#FFFFE6" stroke-width="2.5"/>
<path d="M121 81C119.727 81 118.482 81.1253 117.279 81.3642M113.645 82.4761C106.804 85.3508 102 92.1144 102 100" stroke="#FFFFE6" stroke-width="2.5" stroke-linecap="round"/>
<path d="M174.176 99.7773H166M180.5 92H163.324H180.5ZM187.5 92H185.279H187.5Z" stroke="#FFFFE6" stroke-width="2.5" stroke-linecap="round" stroke-linejoin="round"/>
<path d="M84.1758 121.777H76M79.5 113H62.3242H79.5ZM56.5 113H52.2788H56.5Z" stroke="#FFFFE6" stroke-width="2.5" stroke-linecap="round" stroke-linejoin="round"/>
</svg>
